# Mullard SAA5057
# character 44 (Cyrillic De), 5c (Cyrillic E) corrected based on SAA5057 datasheet

name: SAA-5057 (Cyrillic, datasheet)
spacing: character-cell
cell-size: 6x10


u+0020:
    ......
    ......
    ......
    ......
    ......
    ......
    ......
    ......
    ......
    ......

u+0021:
    ......
    ...@..
    ...@..
    ...@..
    ...@..
    ...@..
    ......
    ...@..
    ......
    ......

u+0022:
    ......
    ..@.@.
    ..@.@.
    ..@.@.
    ......
    ......
    ......
    ......
    ......
    ......

u+0023:
    ......
    ..@.@.
    ..@.@.
    .@@@@@
    ..@.@.
    .@@@@@
    ..@.@.
    ..@.@.
    ......
    ......

u+0024:
    ......
    ..@@@.
    .@.@.@
    .@.@..
    ..@@@.
    ...@.@
    .@.@.@
    ..@@@.
    ......
    ......

u+0025:
    ......
    .@@...
    .@@..@
    ....@.
    ...@..
    ..@...
    .@..@@
    ....@@
    ......
    ......

u+0026:
    ......
    ......
    ......
    .@...@
    .@...@
    .@@@.@
    .@.@.@
    .@@@.@
    ......
    ......

u+0027:
    ......
    ...@..
    ...@..
    ...@..
    ......
    ......
    ......
    ......
    ......
    ......

u+0028:
    ......
    ....@.
    ...@..
    ..@...
    ..@...
    ..@...
    ...@..
    ....@.
    ......
    ......

u+0029:
    ......
    ..@...
    ...@..
    ....@.
    ....@.
    ....@.
    ...@..
    ..@...
    ......
    ......

u+002a:
    ......
    ...@..
    .@.@.@
    ..@@@.
    ...@..
    ..@@@.
    .@.@.@
    ...@..
    ......
    ......

u+002b:
    ......
    ......
    ...@..
    ...@..
    .@@@@@
    ...@..
    ...@..
    ......
    ......
    ......

u+002c:
    ......
    ......
    ......
    ......
    ......
    ......
    ...@..
    ...@..
    ..@...
    ......

u+002d:
    ......
    ......
    ......
    ......
    ..@@@.
    ......
    ......
    ......
    ......
    ......

u+002e:
    ......
    ......
    ......
    ......
    ......
    ......
    ......
    ...@..
    ......
    ......

u+002f:
    ......
    ......
    .....@
    ....@.
    ...@..
    ..@...
    .@....
    ......
    ......
    ......

u+0030:
    ......
    ...@..
    ..@.@.
    .@...@
    .@...@
    .@...@
    ..@.@.
    ...@..
    ......
    ......

u+0031:
    ......
    ...@..
    ..@@..
    ...@..
    ...@..
    ...@..
    ...@..
    ..@@@.
    ......
    ......

u+0032:
    ......
    ..@@@.
    .@...@
    .....@
    ...@@.
    ..@...
    .@....
    .@@@@@
    ......
    ......

u+0033:
    ......
    .@@@@@
    .....@
    ....@.
    ...@@.
    .....@
    .@...@
    ..@@@.
    ......
    ......

u+0034:
    ......
    ....@.
    ...@@.
    ..@.@.
    .@..@.
    .@@@@@
    ....@.
    ....@.
    ......
    ......

u+0035:
    ......
    .@@@@@
    .@....
    .@@@@.
    .....@
    .....@
    .@...@
    ..@@@.
    ......
    ......

u+0036:
    ......
    ...@@.
    ..@...
    .@....
    .@@@@.
    .@...@
    .@...@
    ..@@@.
    ......
    ......

u+0037:
    ......
    .@@@@@
    .....@
    ....@.
    ...@..
    ..@...
    ..@...
    ..@...
    ......
    ......

u+0038:
    ......
    ..@@@.
    .@...@
    .@...@
    ..@@@.
    .@...@
    .@...@
    ..@@@.
    ......
    ......

u+0039:
    ......
    ..@@@.
    .@...@
    .@...@
    ..@@@@
    .....@
    ....@.
    ..@@..
    ......
    ......

u+003a:
    ......
    ......
    ......
    ...@..
    ......
    ......
    ......
    ...@..
    ......
    ......

u+003b:
    ......
    ......
    ......
    ...@..
    ......
    ......
    ...@..
    ...@..
    ..@...
    ......

u+003c:
    ......
    ....@.
    ...@..
    ..@...
    .@....
    ..@...
    ...@..
    ....@.
    ......
    ......

u+003d:
    ......
    ......
    ......
    .@@@@@
    ......
    .@@@@@
    ......
    ......
    ......
    ......

u+003e:
    ......
    ..@...
    ...@..
    ....@.
    .....@
    ....@.
    ...@..
    ..@...
    ......
    ......

u+003f:
    ......
    ..@@@.
    .@...@
    ....@.
    ...@..
    ...@..
    ......
    ...@..
    ......
    ......

u+0040:
    ......
    .@..@.
    .@.@.@
    .@.@.@
    .@@@.@
    .@.@.@
    .@.@.@
    .@..@.
    ......
    ......

u+0041:
    ......
    ..@@@.
    .@...@
    .@...@
    .@...@
    .@@@@@
    .@...@
    .@...@
    ......
    ......

u+0042:
    ......
    .@@@@@
    .@....
    .@....
    .@@@@@
    .@...@
    .@...@
    .@@@@@
    ......
    ......

u+0043:
    ......
    .@..@.
    .@..@.
    .@..@.
    .@..@.
    .@..@.
    .@..@.
    .@@@@@
    .....@
    ......

u+0044:
    ......
    ...@@.
    ..@.@.
    ..@.@.
    ..@.@.
    ..@.@.
    ..@.@.
    .@@@@@
    .@...@
    ......

u+0045:
    ......
    .@@@@@
    .@....
    .@....
    .@@@@.
    .@....
    .@....
    .@@@@@
    ......
    ......

u+0046:
    ......
    ...@..
    .@@@@@
    .@.@.@
    .@.@.@
    .@.@.@
    .@@@@@
    ...@..
    ......
    ......

u+0047:
    ......
    .@@@@@
    .@....
    .@....
    .@....
    .@....
    .@....
    .@....
    ......
    ......

u+0048:
    ......
    .@...@
    .@...@
    ..@.@.
    ...@..
    ..@.@.
    .@...@
    .@...@
    ......
    ......

u+0049:
    ......
    .@...@
    .@...@
    .@..@@
    .@.@.@
    .@@..@
    .@...@
    .@...@
    ......
    ......

u+004a:
    ......
    .@.@.@
    .@...@
    .@..@@
    .@.@.@
    .@@..@
    .@...@
    .@...@
    ......
    ......

u+004b:
    ......
    .@...@
    .@..@.
    .@.@..
    .@@...
    .@.@..
    .@..@.
    .@...@
    ......
    ......

u+004c:
    ......
    ...@@@
    ..@..@
    ..@..@
    ..@..@
    ..@..@
    ..@..@
    .@@..@
    ......
    ......

u+004d:
    ......
    .@...@
    .@@.@@
    .@.@.@
    .@.@.@
    .@...@
    .@...@
    .@...@
    ......
    ......

u+004e:
    ......
    .@...@
    .@...@
    .@...@
    .@@@@@
    .@...@
    .@...@
    .@...@
    ......
    ......

u+004f:
    ......
    ..@@@.
    .@...@
    .@...@
    .@...@
    .@...@
    .@...@
    ..@@@.
    ......
    ......

u+0050:
    ......
    .@@@@@
    .@...@
    .@...@
    .@...@
    .@...@
    .@...@
    .@...@
    ......
    ......

u+0051:
    ......
    ..@@@@
    .@...@
    .@...@
    ..@@@@
    ...@.@
    ..@..@
    .@...@
    ......
    ......

u+0052:
    ......
    .@@@@.
    .@...@
    .@...@
    .@@@@.
    .@....
    .@....
    .@....
    ......
    ......

u+0053:
    ......
    ..@@@.
    .@...@
    .@....
    .@....
    .@....
    .@...@
    ..@@@.
    ......
    ......

u+0054:
    ......
    .@@@@@
    ...@..
    ...@..
    ...@..
    ...@..
    ...@..
    ...@..
    ......
    ......

u+0055:
    ......
    .@...@
    .@...@
    .@...@
    .@@@@@
    .....@
    .....@
    .@@@@@
    ......
    ......

u+0056:
    ......
    .@.@.@
    .@.@.@
    .@.@.@
    ..@@@.
    .@.@.@
    .@.@.@
    .@.@.@
    ......
    ......

u+0057:
    ......
    .@@@@.
    .@...@
    .@...@
    .@@@@.
    .@...@
    .@...@
    .@@@@.
    ......
    ......

u+0058:
    ......
    .@....
    .@....
    .@....
    .@@@@@
    .@...@
    .@...@
    .@@@@@
    ......
    ......

u+0059:
    ......
    .@@...
    ..@...
    ..@...
    ..@@@@
    ..@..@
    ..@..@
    ..@@@@
    ......
    ......

u+005a:
    ......
    ..@@@.
    .@...@
    .....@
    ...@@.
    .....@
    .@...@
    ..@@@.
    ......
    ......

u+005b:
    ......
    .@.@.@
    .@.@.@
    .@.@.@
    .@.@.@
    .@.@.@
    .@.@.@
    .@@@@@
    ......
    ......

u+005c:
    ......
    ..@@..
    .@..@.
    .....@
    ...@@@
    .....@
    .@..@.
    ..@@..
    ......
    ......

u+005d:
    ......
    .@.@.@
    .@.@.@
    .@.@.@
    .@.@.@
    .@.@.@
    .@.@.@
    .@@@@@
    .....@
    ......

u+005e:
    ......
    .@...@
    .@...@
    .@...@
    .@@@@@
    .....@
    .....@
    .....@
    ......
    ......

u+005f:
    ......
    .@...@
    .@...@
    .@...@
    .@@@.@
    .@.@.@
    .@.@.@
    .@@@.@
    ......
    ......

u+0060:
    ......
    ......
    ......
    .@..@.
    .@.@.@
    .@@@.@
    .@.@.@
    .@..@.
    ......
    ......

u+0061:
    ......
    ......
    ......
    ..@@@.
    .....@
    ..@@@@
    .@...@
    ..@@@@
    ......
    ......

u+0062:
    ......
    ..@@@.
    .@....
    .@@@@.
    .@...@
    .@...@
    .@...@
    .@@@@.
    ......
    ......

u+0063:
    ......
    ......
    ......
    .@..@.
    .@..@.
    .@..@.
    .@..@.
    .@@@@@
    .....@
    ......

u+0064:
    ......
    ......
    ......
    ...@@.
    ..@.@.
    ..@.@.
    ..@.@.
    .@@@@@
    .@...@
    ......

u+0065:
    ......
    ......
    ......
    ..@@@.
    .@...@
    .@@@@@
    .@....
    ..@@@.
    ......
    ......

u+0066:
    ......
    ......
    ...@..
    ..@@@.
    .@.@.@
    .@.@.@
    .@.@.@
    ..@@@.
    ...@..
    ......

u+0067:
    ......
    ......
    ......
    .@@@@@
    .@....
    .@....
    .@....
    .@....
    ......
    ......

u+0068:
    ......
    ......
    ......
    .@...@
    ..@.@.
    ...@..
    ..@.@.
    .@...@
    ......
    ......

u+0069:
    ......
    ......
    ......
    .@...@
    .@..@@
    .@.@.@
    .@@..@
    .@...@
    ......
    ......

u+006a:
    ......
    ......
    ...@..
    .@...@
    .@..@@
    .@.@.@
    .@@..@
    .@...@
    ......
    ......

u+006b:
    ......
    ......
    ......
    .@...@
    .@..@.
    .@@@..
    .@..@.
    .@...@
    ......
    ......

u+006c:
    ......
    ......
    ......
    ...@@@
    ..@..@
    ..@..@
    ..@..@
    .@@..@
    ......
    ......

u+006d:
    ......
    ......
    ......
    .@...@
    .@@.@@
    .@.@.@
    .@...@
    .@...@
    ......
    ......

u+006e:
    ......
    ......
    ......
    .@...@
    .@...@
    .@@@@@
    .@...@
    .@...@
    ......
    ......

u+006f:
    ......
    ......
    ......
    ..@@@.
    .@...@
    .@...@
    .@...@
    ..@@@.
    ......
    ......

u+0070:
    ......
    ......
    ......
    .@@@@@
    .@...@
    .@...@
    .@...@
    .@...@
    ......
    ......

u+0071:
    ......
    ......
    ......
    ..@@@@
    .@...@
    ..@@@@
    ...@.@
    .@@..@
    ......
    ......

u+0072:
    ......
    ......
    ......
    .@@@@.
    .@...@
    .@...@
    .@...@
    .@@@@.
    .@....
    .@....

u+0073:
    ......
    ......
    ......
    ..@@@.
    .@...@
    .@....
    .@...@
    ..@@@.
    ......
    ......

u+0074:
    ......
    ......
    ......
    .@@@@@
    ...@..
    ...@..
    ...@..
    ...@..
    ......
    ......

u+0075:
    ......
    ......
    ......
    .@...@
    .@...@
    .@...@
    .@...@
    ..@@@@
    .....@
    ..@@@.

u+0076:
    ......
    ......
    ......
    .@.@.@
    .@.@.@
    ..@@@.
    .@.@.@
    .@.@.@
    ......
    ......

u+0077:
    ......
    ......
    ......
    .@@@@.
    .@...@
    .@@@@.
    .@...@
    .@@@@.
    ......
    ......

u+0078:
    ......
    ......
    ......
    .@....
    .@....
    .@@@@.
    .@...@
    .@@@@.
    ......
    ......

u+0079:
    ......
    ......
    ......
    .@@...
    ..@...
    ..@@@.
    ..@..@
    ..@@@.
    ......
    ......

u+007a:
    ......
    ......
    ......
    ..@@@.
    .@...@
    ...@@.
    .@...@
    ..@@@.
    ......
    ......

u+007b:
    ......
    ......
    ......
    .@.@.@
    .@.@.@
    .@.@.@
    .@.@.@
    .@@@@@
    ......
    ......

u+007c:
    ......
    ......
    ......
    ..@@..
    .@..@.
    ...@@.
    .@..@.
    ..@@..
    ......
    ......

u+007d:
    ......
    ......
    ......
    .@.@.@
    .@.@.@
    .@.@.@
    .@.@.@
    .@@@@@
    .....@
    ......

u+007e:
    ......
    ......
    ......
    .@...@
    .@...@
    .@...@
    ..@@@@
    .....@
    ......
    ......

u+007f:
    ......
    .@@@@@
    .@@@@@
    .@@@@@
    .@@@@@
    .@@@@@
    .@@@@@
    .@@@@@
    ......
    ......

